<?xml version="1.0" encoding="utf-8"?>
<!-- Generator: Adobe Illustrator 19.1.0, SVG Export Plug-In . SVG Version: 6.00 Build 0)  -->
<!DOCTYPE svg PUBLIC "-//W3C//DTD SVG 1.1//EN" "http://www.w3.org/Graphics/SVG/1.1/DTD/svg11.dtd">
<svg version="1.1" id="Layer_1" xmlns="http://www.w3.org/2000/svg" xmlns:xlink="http://www.w3.org/1999/xlink" x="0px" y="0px"
	 viewBox="0 0 200 200" style="enable-background:new 0 0 200 200;" xml:space="preserve">
<style type="text/css">
	.st0{fill:#543729;}
	.st1{fill:#00ACEE;}
	.st2{fill:#2BAF2B;}
	.st3{fill:#FFCC2F;}
	.st4{fill:#CECECE;}
	.st5{fill:#EF5734;}
	.st6{fill:#FFFFFF;}
</style>
<g>
	<path id="outline_24_" class="st0" d="M194.8,98C184.7,88.3,134,82.2,118,80.4c0.8-1.8,1.4-3.7,2-5.7c2.2-1,4.5-1.8,7-2.6
		c0.3,0.9,1.7,4.2,2.5,5.8c32.2,0.9,33.8-23.9,35.1-30.7c1.3-6.6,1.2-13.1,12.3-24.8c-16.4-4.8-40.1,7.4-48,25.6
		c-3-1.1-6-1.9-8.9-2.4c-2.1-8.5-13.1-32.3-42-32.3c-36.6,0-76.4,30.2-76.4,81.3c0,42.9,29.3,80.6,45.9,80.6
		c7.2,0,13.5-5.4,14.9-10.3c1.2,3.3,5,13.7,6.2,16.3c1.8,3.9,10.3,7.3,14,3.2c4.7,2.6,13.5,4.2,18.2-2.8c9.1,1.9,17.2-3.5,17.4-10
		c4.5-0.2,6.7-6.5,5.7-11.6c-0.7-3.7-8.4-16.9-11.4-21.5c6,4.8,21,6.2,22.9,0c9.6,7.5,24.6,3.6,25.8-2.5c11.7,3,25.1-3.6,22.9-11.7
		C202.5,123,200.1,103.1,194.8,98z"/>
	<g id="leaf">
		<path class="st1" d="M142.6,55.5c4-8,9.1-16.8,15.5-22.2c-7.1,2.8-14,11.3-18.1,20.4c-2.1-1.3-4.2-2.5-6.4-3.6
			c5.7-12.3,19.1-22.5,33.8-23.3c-9.9,8.9-6.4,27.5-14.5,37.3C150.7,61.9,145.3,57.4,142.6,55.5z M136.3,68.5c0-0.3,0.1-2.7,0.3-3.8
			c-0.6-0.1-4.1-0.8-5.9-0.8c-0.1,2.3,1,6.2,2.1,8.6c7.5-0.2,12.9-2.4,16.1-4.5c-2.7-1.3-7.3-2.4-10.8-3.1
			C137.6,65.8,136.6,67.9,136.3,68.5z"/>
	</g>
	<path id="wingtip" class="st2" d="M108.4,131.9C108.4,131.9,108.5,131.9,108.4,131.9c-0.9-2-1.9-4.5-3.2-7.7
		c4.7,6.8,19.4,3.3,18.6-2.8c7.2,5.4,22-0.9,18.6-8.5c7.2,3.4,15.4-3.4,13.6-6.3c12.3,2.4,24,4.7,27.7,5.7c-2.5,4-8,6.8-16.5,4.9
		c4.5,6.2-4.3,13.6-16.6,9.5c2.7,6.1-8.2,11.6-20.7,5.2C130.2,137.9,114.6,138.6,108.4,131.9z M132.8,101.1
		c14.2,1.1,37.8,3.2,52.4,5.3c-0.9-4.7-3.4-6.1-11.4-8.2C165.3,99.1,143.7,101.2,132.8,101.1z"/>
	<path id="body" class="st3" d="M123.9,121.3c7.2,5.4,22-0.9,18.6-8.5c7.2,3.4,15.4-3.4,13.6-6.3c-14.5-2.8-29.7-5.6-33.2-6.1
		c2.1,0.1,5.6,0.3,9.9,0.7c10.9,0.1,32.5-2.1,41-3c-13.8-3.5-41.9-8.6-61.4-9.9c-0.9,1.3-2.6,3.5-5.4,5.9c-8.5,18-23.9,30-41,30
		c-5,0-10.5-0.8-16.8-2.8c-3.9,4.2-20.4,7.3-33.9,0.7c10.7,25,35.4,41.6,62.8,41.6c23,0,33.3-23.5,31-29.8c-0.5-1.5-2.7-6.5-3.9-9.8
		C110,131,124.7,127.5,123.9,121.3z"/>
	<path id="beak" class="st4" d="M109.9,74c2-1.1,9.1-5.4,15.8-7c-0.1-0.7-0.2-1.5-0.2-2.2c-4.4,1.1-12.7,4.6-17.4-0.3
		c10,3,15-2.7,22.4-2.7c4.4,0,10.7,1.2,15.6,3.2c-4-3.7-17-14.7-33.1-14.8C109.3,54.5,105.4,64,109.9,74z"/>
	<path id="head" class="st5" d="M49.3,121.3c6.2,2,11.8,2.8,16.8,2.8c17,0,32.5-12,41-30c-6.3,5.3-17.2,9.7-34.3,9.7
		c15.2-3.4,28.3-11,35-22.1c-4.7-7.4-9.8-23.9,3.1-37c-2-6.4-11.6-23.1-32.9-23.1c-37.2,0-68,31.1-68,72.8c0,9.9,2,19.1,5.6,27.5
		C28.8,128.7,45.4,125.5,49.3,121.3z"/>
	<path id="eye_rim_23_" class="st3" d="M60.5,57.8c0,9.5,7.7,17.2,17.2,17.2c9.5,0,17.2-7.7,17.2-17.2c0-9.5-7.7-17.2-17.2-17.2
		C68.1,40.7,60.5,48.4,60.5,57.8z"/>
	<path id="eye_23_" class="st0" d="M67.3,57.8c0,5.7,4.6,10.3,10.3,10.3c5.7,0,10.3-4.6,10.3-10.3c0-5.7-4.6-10.3-10.3-10.3
		C72,47.6,67.3,52.2,67.3,57.8z"/>
	<ellipse id="pupil_highlight_22_" class="st6" cx="77.6" cy="53.3" rx="6" ry="3.7"/>
</g>
</svg>
