<?xml version="1.0" encoding="utf-8"?>
<!-- Generator: Adobe Illustrator 19.1.0, SVG Export Plug-In . SVG Version: 6.00 Build 0)  -->
<!DOCTYPE svg PUBLIC "-//W3C//DTD SVG 1.1//EN" "http://www.w3.org/Graphics/SVG/1.1/DTD/svg11.dtd">
<svg version="1.1" id="Layer_1" xmlns="http://www.w3.org/2000/svg" xmlns:xlink="http://www.w3.org/1999/xlink" x="0px" y="0px"
	 viewBox="0 0 200 200" style="enable-background:new 0 0 200 200;" xml:space="preserve">
<style type="text/css">
	.st0{fill:#FBA919;}
	.st1{fill:#E78724;}
	.st2{fill:#87CCEE;}
	.st3{fill:#FDC168;}
	.st4{fill:#FFFFFF;}
	.st5{fill:#C9C9C9;}
	.st6{fill:#463014;}
</style>
<g>
	<path class="st0" d="M36.1,49.2c0,0,3.4,13.1,3.9,17.4c0.5,4.4-8.7,14-8.7,18.9c0,4.8,1.9,13.6,12.6,17.9
		c10.7,4.4,12.1,15.5,12.1,22.3c0,6.8-3.9,19.8-3.9,19.8s-2.4,32.4,10.6,38.2c13.1,5.8,10.2,5.8,13.1,5.8c2.9,0,24.2,8.7,36.8,5.3
		c12.6-3.4,16-7.3,16-7.3s12.6,1,16.5-10.2c3.9-11.1,6.3-34.4,4.8-45c-1.5-10.7-3.4-24.7,5.3-29.5c8.7-4.8,17.9-10.6,16.5-15.5
		c-1.5-4.8-9.2-11.6-9.2-11.6s-1.9-12.1-0.5-15c1.5-2.9,10.2-10.2,5.3-15.5c-4.8-5.3-13.6-5.3-13.6-5.3l-11.1,1
		c0,0-18.9-16.9-43.6-16c-24.7,1-40.2,16-40.2,16s-8.2-2.9-15.5,0C36.1,43.8,34.6,40.9,36.1,49.2z"/>
	<path class="st1" d="M80.3,121.2c0,0-9.6,14.7-16.6,25.1c-1.1,1.6,7,1.7,7,1.7L80.3,121.2z"/>
	<path class="st1" d="M84.9,90.8c0,0-2.9,7.2-4.5,11c-1.7,4.2-8.3,6.2-8.3,6.2s3.4-3.6,3.4-12.6c0-3.8,4.9-5.3,4.9-5.3L84.9,90.8z"
		/>
	<path class="st1" d="M82,94.9c0,0-5.9,7-16.9,3.1c-11-3.9-12.1-18-12.1-22c0-3.9,20.9,3.9,23.7,5.6C79.4,83.4,84.8,90.1,82,94.9z"
		/>
	<path class="st1" d="M40.4,19.6c0,0,10.1-2,16.9,3.4c6.8,5.4,8.7,9.6,8.7,9.6l-11.4,9c0,0-5.5-2.6-7.2-9.9
		C45.8,24.4,46.9,21,40.4,19.6z"/>
	<path class="st1" d="M79,74.6c-4.4-6.2-11.6-8.9-17.3-9.4c-9.8-0.8-14.5,2.7-14.5,2.7s16.1,0.7,20.7,6.8
		c8.6,11.3,21.2,12.2,23.2,9.7c-2.3,0.1-4.9-1-7.6-3.6C81.8,79.2,80.4,76.5,79,74.6z"/>
	<path class="st1" d="M51.9,96.5c0,0-17.8-6.1-14.4-12.3c3.4-6.2,0.7-9.6,0.7-9.6s-9.9,7.4-7.4,15.3c1.6,4.8,4.2,8.4,18.5,15.1
		c6.9,12.8,1.4,35.8,1.7,35.9c0.5,0.2,9.7-4.5,9-26C59.9,108.2,59.4,99.2,51.9,96.5z"/>
	<path class="st1" d="M75.3,30.6c-7.5,3.8-17.7,9.1-17.7,9.1l4,2c-0.4,0.6-0.6,1-0.6,1l4.1,1.9c0,0,10.1,7.3,16.3,12
		c-2.1-6.3-8.1-16.3-8.1-16.3S71.6,35.7,75.3,30.6z"/>
	<path class="st1" d="M100.1,185.3c-23,0-30.7-11.7-30.7-11.7l3.6,8.7c1.4,3.8,15.8,15.5,27.1,15.5"/>
	<path class="st1" d="M71.8,165.8c0,0,2.1,12.9,10.6,12.9c7.2,0,9.3-10.9,9.3-13.2L71.8,165.8z"/>
	<path class="st1" d="M57.8,146.3c0.8-2.1,3.4-10.4,4.2-18c1-9.1,0.6-22.4,0.6-22.4s-2.3,8.7-4.2,10.2c-2,1.4-5.6,11-5.6,11
		s-2,14.3-2.9,19.1C52.5,146.6,54.6,145,57.8,146.3z"/>
	<path class="st1" d="M37.3,89.8c0,0,4.8-1.7,6.2-12.1c1.4-10.4-1.7-19.5-1.7-19.5s0.3,14.4-1.4,17.2c-1.7,2.8-3.1,3.7-5.1,7.3
		C33.4,86.4,36.2,88.6,37.3,89.8z"/>
	<path class="st2" d="M62.8,41.9"/>
	<path class="st3" d="M43.1,22.1l-1-0.6C39.2,21.6,43.1,22.1,43.1,22.1z"/>
	<path class="st0" d="M79.2,27.6c0,0-4.5-0.8-6.8-4.1c-2.3-3.4-8.6-10.2-18.8-10.2c-10.2-0.1-20.3,2.7-20.3,2.7l8.8,5.6
		c0.9,0,2.6,0,5.2,0.1c11,0.4,12.7,11.3,12.7,11.3L99,27.5"/>
	<path class="st4" d="M82.9,87.9c0,0-5.3,5.3-13.3,3.6c-8.1-1.7-13-5.3-13.3-11.5c-0.4-6.2,1.7-8.6,1.7-8.6s9,2.8,13.3,6.6
		C75.6,81.7,78.8,87.7,82.9,87.9z"/>
	<path class="st5" d="M76.5,86c0,0-4.6,2.1-9.7,0.4c-6.7-2.2-7.1-9.2-7.1-9.2s-4.1,12,7.4,14.3c9.2,1.9,14.7-3.5,14.7-3.5L76.5,86z"
		/>
	<path class="st6" d="M81.8,153.4"/>
	<path class="st6" d="M79.8,25c-0.5-10.3,8-18.5,10.9-18.9c0.2,1.7-0.2,8.6,2.8,10.7c0.9-5.6,3.7-11.7,15.1-15.7
		c-2.4,6.5-0.3,11.9,0.7,14.4c7.8-7.1,13-5.9,13-5.9s-5.4,9.3-3.3,15.4C103.4,23.8,79.9,26.7,79.8,25z"/>
	<path class="st6" d="M46.7,40.7c-3.7-3.1-0.9-6-1.2-9.5c-0.2-1.9-0.3-3.6-0.9-4.6C41.1,21.2,33,19.6,33,19.6l-3.8-0.7l2.5-2.9
		c0.3-0.4,10.6-10.2,26.6-5.1C69.4,14.4,77.7,26.6,78,27.1l-5.6,2.6c-0.1-0.1-6.6-11.6-16.2-14.7c-7.7-2.5-14.9-0.1-17.9,1.4
		c3.2,1.3,7.5,3.7,10.1,7.7c1.2,1.9,1.4,4.3,1.6,6.6c0.3,3.1,0.5,6,2.8,7.9L46.7,40.7z"/>
	<path class="st6" d="M36.8,85.8c0,0,4.7-5.8,6.1-17.1c0.5-4.5-0.4-13.3-2-16.6c0.3,8.3-1.8,16.6-1.8,16.6S37.6,84.1,36.8,85.8z"/>
	<path class="st6" d="M61.5,34.8c0,0-1.5-6.6-5.7-9.9c-5.9-4.7-13.1-2.2-13.1-2.2l-1-3.2c0.3-0.1,8.5-2.7,16.1,2.6
		c7.6,5.3,8.5,10.2,8.6,10.7L61.5,34.8z"/>
	<path class="st6" d="M51.5,81.6c0,0-2.5-3.5-2-7.4c0.2-1.9,1.1-3.9,2.7-4.6c2.9-1.3,4.2,2,4.2,2S52.3,72.7,51.5,81.6z"/>
	<path class="st6" d="M81.8,153.4"/>
	<path class="st6" d="M78.5,87c0.1,0.2,0.2,0.3,0.2,0.3s-7.7,5.8-15.5-0.1c-4.2-3.1-3.8-10.9-2.5-14.2c3.4,0.8,6.2,2.1,8.6,3.7
		c-3-2.7-5.6-4.7-5.6-4.7l-3.4-1l-6.6-2.3C53.4,69.3,51,80.7,58,88.4c3.1,3.4,17.6,11.1,24.5-2L78.5,87z"/>
	<path class="st6" d="M77.8,87.8c4.3,6.6,15.2,2.8,15-4.1c0,0-7.3,4-13.7-3.4C75.4,76,63.3,64.1,47,68
		C58.3,70.5,73.2,80.8,77.8,87.8z"/>
	<g>
		<path class="st6" d="M81.8,153.4"/>
	</g>
	<path class="st6" d="M45.5,106.4c1,0.6,4.7,4.4,4.7,10.1c0,2.8-0.3,17.2-1.7,25.9c2.1,1.4,3.6,1.7,5.7,3.1
		c1.1-10.1,1.8-24.8,1.5-30.7c-0.4-6.8-4-11.3-7.4-13.2c-1-0.6-2.1-1.2-3.3-1.8c-5.7-3.1-11.7-6.3-11.7-11.8c0-4.3,1.7-5.6,3.4-7
		l0.2-0.2c1.2-0.9,2.5-2,3.3-3.8c2.1-4.8,2.5-17.1,0-20.2c-1.2-1.6-4.6-6.8-3.6-10.3c0.4-1.3,1.2-2.3,2.6-3c1.5-0.7,3.4-1.1,5.8-1.1
		c4.7,0,10,1.4,12.7,2.3c9.7,3.1,21.4,11.9,24.8,14.6c0.1,0.1,0.2,0.1,0.2,0.1l2.1,1.5l-1.3-2.2c-0.1-0.1-8.6-14.1-23.8-19.2
		c-3-1-8.8-2.7-14.5-2.7c-3.4,0-6.3,0.6-8.6,1.8c-2.8,1.4-4.7,3.7-5.5,6.6c-1.9,7,4.3,14.9,4.5,15.1c0.7,1.3,1,10.8-0.6,14.5
		c-0.2,0.5-0.9,1-1.7,1.7c-0.3,0.2-0.5,0.4-0.8,0.6c-2.4,1.8-6,4.5-6,10.7c0,8.5,8.7,13.2,15.6,16.9
		C43.4,105.3,44.5,105.8,45.5,106.4z"/>
	<g>
		<g>
			<path class="st6" d="M46.7,40.7c-3.7-3.1-0.9-6-1.2-9.5c-0.2-1.9-0.3-3.6-0.9-4.6C41.1,21.2,33,19.6,33,19.6l-3.8-0.7l2.5-2.9
				c0.3-0.4,10.6-10.2,26.6-5.1C69.4,14.4,77.7,26.6,78,27.1l-5.6,2.6c-0.1-0.1-6.6-11.6-16.2-14.7c-7.7-2.5-14.9-0.1-17.9,1.4
				c3.2,1.3,7.5,3.7,10.1,7.7c1.2,1.9,1.4,4.3,1.6,6.6c0.3,3.1,0.5,6,2.8,7.9L46.7,40.7z"/>
		</g>
		<g>
			<path class="st6" d="M46.6,41.3l-0.2-0.2c-2.8-2.3-2.3-4.5-1.8-6.7c0.2-1,0.4-2,0.4-3.1c-0.2-1.8-0.3-3.5-0.8-4.3
				c-3.3-5.2-11.1-6.8-11.2-6.8l-4.7-0.9l3.1-3.7c0.1-0.1,6.7-6.8,17.9-6.8c3.1,0,6.2,0.5,9.3,1.5c11.7,3.8,20,16.4,20,16.5l0.3,0.5
				l-6.6,3.1l-0.3-0.4c-0.7-1.2-7-11.6-15.9-14.4c-2.2-0.7-4.5-1.1-6.8-1.1c-4.3,0-7.7,1.2-9.5,1.9c3.1,1.4,6.8,3.7,9.1,7.4
				c1.3,2,1.5,4.5,1.7,6.9c0.2,3,0.5,5.8,2.6,7.5l0.8,0.7L46.6,41.3z"/>
		</g>
	</g>
	<g>
		<g>
			<path class="st6" d="M61.5,34.8c0,0-1.5-6.6-5.7-9.9c-5.9-4.7-13.1-2.2-13.1-2.2l-1-3.2c0.3-0.1,8.5-2.7,16.1,2.6
				c7.6,5.3,8.5,10.2,8.6,10.7L61.5,34.8z"/>
		</g>
		<g>
			<path class="st6" d="M61.1,35.6L60.9,35c0-0.1-1.5-6.4-5.5-9.6c-2.3-1.8-5-2.7-8.1-2.7c-2.4,0-4.3,0.6-4.5,0.7l-0.5,0.2L41,19.2
				l0.5-0.2c0.2-0.1,2.4-0.8,5.5-0.8c4.1,0,7.9,1.2,11.1,3.4c7.8,5.5,8.7,10.5,8.8,11.1l0.1,0.4L61.1,35.6z M47.3,21.5
				c3.3,0,6.4,1,8.8,3c3.5,2.8,5.2,7.8,5.7,9.6l3.8-1.5c-0.3-1.4-1.9-5.4-8.3-9.9c-3.1-2.2-6.6-3.2-10.5-3.2c-2.1,0-3.8,0.3-4.6,0.5
				l0.7,2.1C43.9,21.9,45.4,21.5,47.3,21.5z"/>
		</g>
	</g>
	<path class="st6" d="M82.1,175.6L82.1,175.6c-1.7,0-3.4-0.6-4.5-1.6c-0.9-0.8-4-3.6-5.3-7c-0.5-1.3-0.4-2.3,0.3-3
		c0.5-0.5,1.5-1.1,3.7-1.1l1.5,0c1.8,0,4.8,0,7.4,0h2.5c1.6,0,2.8,0.3,3.4,1c0.9,0.9,0.6,2,0.3,2.6c-0.4,1-2.1,4.4-5,7.5
		C85.3,175,83.8,175.6,82.1,175.6z"/>
	<path class="st6" d="M83.8,88.2l-6-0.4c0,0,1.5,2.7,2.5,6.2c1.1,4-1,9.8-1,9.8S87.3,94.7,83.8,88.2z"/>
	<g>
		<path class="st6" d="M76.3,191.5c-21.4-1.6-28.9-21.9-28.9-26.1l5.6,0l-2.8,0H53c0,1.8,5.7,19.1,23.8,20.5L76.3,191.5z"/>
	</g>
	<path class="st4" d="M70.3,155.2c-0.3-1.9-0.4-3.8,0-5.6c-1.6-1.2-4.5-1.7-6.7-2.4c-1.8-1.1-11,1.2-17.6-6.9
		c-8.3-10.1-6.6-16.1-6.6-16.1c-2.1,2.4-4.2,1.5-7.5,12.5c-3.3,11.1,1.5,18.8,10.5,26.5c4.2,3.7,10.2,5.2,15.3,5.7
		c-1.7-1.7,2.9-1.9,6.1-3.1c-0.3-2.6,0.2-5.1,2.1-7.1c1.2-1.2,2.7-1.9,4.2-2.5c0.1-0.2,0.2-0.4,0.2-0.6
		C70.4,155.6,70.3,155.4,70.3,155.2z"/>
	<path class="st5" d="M63.8,166c-0.2-0.5-0.3-1.1-0.5-1.7c-0.1-0.6-0.9-2.3,0-0.4c-0.2-0.5-0.4-1-0.5-1.5c-14.5,0-27-9.9-24.6-30.8
		c-1.9-2.5-4.5,5.1-4.5,5.1s-7.2,21,11.5,29.2c6.2,2.7,11.7,4.7,13,3.9c2.7,0.5,5.1-1.3,6.1-2.6C64.1,166.7,63.9,166.3,63.8,166z"/>
	<path class="st6" d="M70,152.2c0-1.8,0.4-3.5,1.2-5.2c0.1-0.1,0.1-0.2,0.2-0.3c-5.6,0-12-0.6-17.4-2.8c-6-2.4-13.5-10.6-14.8-20.3
		c0,0-11.3,8.7-8,27.4c3.1,17.5,17.8,23.2,34.5,24.2c0-0.1-1.9-4-1.3-6.4c-9.5,0.7-20.1-3-25.2-11.4c-4.7-7.7-3.4-20.9-1.4-22.8
		C42.5,149.5,59.4,152.5,70,152.2z"/>
	<path class="st6" d="M100.1,175.2"/>
	<path class="st6" d="M71.8,141.6c-3,8.8-9.2,16-9.2,16s8.5-0.4,8.9-1.9c0.3-1.1,7.6-18.2,10.4-38.2C79.3,121.9,72,140.8,71.8,141.6
		z"/>
	<path class="st1" d="M119.7,121.2c0,0,9.6,14.7,16.6,25.1c1.1,1.6-7,1.7-7,1.7L119.7,121.2z"/>
	<path class="st1" d="M115.1,90.8c0,0,2.9,7.2,4.5,11c1.7,4.2,8.3,6.2,8.3,6.2s-3.4-3.6-3.4-12.6c0-3.8-4.9-5.3-4.9-5.3L115.1,90.8z
		"/>
	<path class="st1" d="M118,94.9c0,0,5.9,7,16.9,3.1c11-3.9,12.1-18,12.1-22c0-3.9-20.9,3.9-23.7,5.6C120.6,83.4,115.2,90.1,118,94.9
		z"/>
	<path class="st1" d="M159.6,19.6c0,0-10.1-2-16.9,3.4c-6.8,5.4-8.7,9.6-8.7,9.6l11.4,9c0,0,5.5-2.6,7.2-9.9
		C154.2,24.4,153.1,21,159.6,19.6z"/>
	<path class="st1" d="M121,74.6c4.4-6.2,11.6-8.9,17.3-9.4c9.8-0.8,14.5,2.7,14.5,2.7s-16.1,0.7-20.7,6.8
		c-8.6,11.3-21.2,12.2-23.2,9.7c2.3,0.1,4.9-1,7.6-3.6C118.2,79.2,119.6,76.5,121,74.6z"/>
	<path class="st1" d="M148.1,96.5c0,0,17.8-6.1,14.4-12.3c-3.4-6.2-0.7-9.6-0.7-9.6s9.9,7.4,7.4,15.3c-1.6,4.8-4.2,8.4-18.5,15.1
		c-6.9,12.8-1.4,35.8-1.7,35.9c-0.5,0.2-9.7-4.5-9-26C140.1,108.2,140.7,99.2,148.1,96.5z"/>
	<path class="st1" d="M124.8,30.6c7.5,3.8,17.7,9.1,17.7,9.1l-4,2c0.4,0.6,0.6,1,0.6,1l-4.1,1.9c0,0-10.1,7.3-16.3,12
		c2.1-6.3,8.1-16.3,8.1-16.3S128.4,35.7,124.8,30.6z"/>
	<path class="st1" d="M99.9,185.3c23,0,30.7-11.7,30.7-11.7l-3.6,8.7c-1.4,3.8-15.8,15.5-27.1,15.5"/>
	<path class="st1" d="M128.2,165.8c0,0-2.1,12.9-10.6,12.9c-7.2,0-9.3-10.9-9.3-13.2L128.2,165.8z"/>
	<path class="st1" d="M142.2,146.3c-0.8-2.1-3.4-10.4-4.2-18c-1-9.1-0.6-22.4-0.6-22.4s2.3,8.7,4.2,10.2c2,1.4,5.6,11,5.6,11
		s2,14.3,2.9,19.1C147.5,146.6,145.4,145,142.2,146.3z"/>
	<path class="st1" d="M162.7,89.8c0,0-4.8-1.7-6.2-12.1c-1.4-10.4,1.7-19.5,1.7-19.5s-0.3,14.4,1.4,17.2c1.7,2.8,3.1,3.7,5.1,7.3
		C166.6,86.4,163.8,88.6,162.7,89.8z"/>
	<path class="st2" d="M137.2,41.9"/>
	<path class="st3" d="M156.9,22.1l1-0.6C160.8,21.6,156.9,22.1,156.9,22.1z"/>
	<path class="st0" d="M120.8,27.6c0,0,4.5-0.8,6.8-4.1c2.3-3.4,8.6-10.2,18.8-10.2c10.2-0.1,20.3,2.7,20.3,2.7l-8.8,5.6
		c-0.9,0-2.6,0-5.2,0.1c-11,0.4-12.7,11.3-12.7,11.3L101,27.5"/>
	<path class="st4" d="M117.1,87.9c0,0,5.3,5.3,13.3,3.6c8.1-1.7,13-5.3,13.3-11.5c0.4-6.2-1.7-8.6-1.7-8.6s-9,2.8-13.3,6.6
		C124.4,81.7,121.2,87.7,117.1,87.9z"/>
	<path class="st5" d="M123.5,86c0,0,4.6,2.1,9.7,0.4c6.7-2.2,7.1-9.2,7.1-9.2s4.1,12-7.4,14.3c-9.2,1.9-14.7-3.5-14.7-3.5L123.5,86z
		"/>
	<path class="st6" d="M118.2,153.4"/>
	<path class="st6" d="M153.3,40.7c3.7-3.1,1-6,1.2-9.5c0.2-1.9,0.3-3.6,0.9-4.6c3.4-5.4,11.5-7.1,11.6-7.1l3.8-0.7l-2.5-2.9
		c-0.3-0.4-10.6-10.2-26.6-5.1c-11.2,3.6-19.4,15.8-19.7,16.3l5.6,2.6c0.1-0.1,6.6-11.6,16.2-14.7c7.7-2.5,14.9-0.1,17.9,1.4
		c-3.2,1.3-7.5,3.7-10.1,7.7c-1.2,1.9-1.4,4.3-1.6,6.6c-0.3,3.1-0.5,6-2.8,7.9L153.3,40.7z"/>
	<path class="st6" d="M163.2,85.8c0,0-4.7-5.8-6.1-17.1c-0.5-4.5,0.4-13.3,2-16.6c-0.3,8.3,1.8,16.6,1.8,16.6S162.4,84.1,163.2,85.8
		z"/>
	<path class="st6" d="M138.5,34.8c0,0,1.5-6.6,5.7-9.9c5.9-4.7,13.1-2.2,13.1-2.2l1-3.2c-0.3-0.1-8.5-2.7-16.1,2.6
		c-7.6,5.3-8.5,10.2-8.6,10.7L138.5,34.8z"/>
	<path class="st6" d="M148.5,81.6c0,0,2.5-3.5,2-7.4c-0.2-1.9-1.1-3.9-2.7-4.6c-2.9-1.3-4.2,2-4.2,2S147.7,72.7,148.5,81.6z"/>
	<path class="st6" d="M118.2,153.4"/>
	<path class="st6" d="M121.5,87c-0.1,0.2-0.2,0.3-0.2,0.3s7.7,5.8,15.5-0.1c4.2-3.1,3.8-10.9,2.5-14.2c-3.4,0.8-6.2,2.1-8.6,3.7
		c3-2.7,5.6-4.7,5.6-4.7l3.4-1l6.6-2.3c0.1,0.5,2.5,11.9-4.5,19.6c-3.1,3.4-17.6,11.1-24.5-2L121.5,87z"/>
	<path class="st6" d="M122.2,87.8c-4.3,6.6-15.2,2.8-15-4.1c0,0,7.3,4,13.7-3.4C124.6,76,136.7,64.1,153,68
		C141.7,70.5,126.8,80.8,122.2,87.8z"/>
	<g>
		<path class="st6" d="M118.2,153.4"/>
	</g>
	<path class="st6" d="M154.5,106.4c-1,0.6-4.7,4.4-4.7,10.1c0,2.8,0.3,17.2,1.7,25.9c-2.1,1.4-3.6,1.7-5.7,3.1
		c-1.1-10.1-1.8-24.8-1.5-30.7c0.4-6.8,4-11.3,7.4-13.2c1-0.6,2.1-1.2,3.3-1.8c5.7-3.1,11.7-6.3,11.7-11.8c0-4.3-1.7-5.6-3.4-7
		l-0.2-0.2c-1.2-0.9-2.5-2-3.3-3.8c-2.1-4.8-2.5-17.1,0-20.2c1.2-1.6,4.6-6.8,3.6-10.3c-0.4-1.3-1.2-2.3-2.6-3
		c-1.5-0.7-3.4-1.1-5.8-1.1c-4.7,0-10,1.4-12.7,2.3c-9.7,3.1-21.4,11.9-24.8,14.6c-0.1,0.1-0.2,0.1-0.2,0.1l-2.1,1.5l1.3-2.2
		c0.1-0.1,8.6-14.1,23.8-19.2c3-1,8.8-2.7,14.5-2.7c3.4,0,6.3,0.6,8.6,1.8c2.8,1.4,4.7,3.7,5.5,6.6c1.9,7-4.3,14.9-4.5,15.1
		c-0.7,1.3-1,10.8,0.6,14.5c0.2,0.5,0.9,1,1.7,1.7c0.3,0.2,0.5,0.4,0.8,0.6c2.4,1.8,6,4.5,6,10.7c0,8.5-8.7,13.2-15.6,16.9
		C156.6,105.3,155.5,105.8,154.5,106.4z"/>
	<path class="st6" d="M144.2,39.7c-1.4-2.3-4.9-6.8-13-10.8c-9.1-4.4-19.5-6.7-31.2-6.7v0c0,0,0,0,0,0c0,0,0,0,0,0v0
		c-11.6,0-22.1,2.2-31.2,6.7c-8.1,4-11.6,8.5-13,10.8l-0.6,0.8l7,1.5l0.2-0.3l0.1-0.3c0.1-0.5,1-2.9,8.8-6.7c8.3-4,18-6.1,28.7-6.1
		c10.8,0,20.4,2.1,28.7,6.1c7.8,3.8,8.7,6.3,8.8,6.7l0.1,0.3l0.2,0.3l7-1.5L144.2,39.7z"/>
	<g>
		<g>
			<path class="st6" d="M153.3,40.7c3.7-3.1,1-6,1.2-9.5c0.2-1.9,0.3-3.6,0.9-4.6c3.4-5.4,11.5-7.1,11.6-7.1l3.8-0.7l-2.5-2.9
				c-0.3-0.4-10.6-10.2-26.6-5.1c-11.2,3.6-19.4,15.8-19.7,16.3l5.6,2.6c0.1-0.1,6.6-11.6,16.2-14.7c7.7-2.5,14.9-0.1,17.9,1.4
				c-3.2,1.3-7.5,3.7-10.1,7.7c-1.2,1.9-1.4,4.3-1.6,6.6c-0.3,3.1-0.5,6-2.8,7.9L153.3,40.7z"/>
		</g>
		<g>
			<path class="st6" d="M146.1,39l0.8-0.7c2.1-1.7,2.3-4.5,2.6-7.5c0.2-2.4,0.4-4.9,1.7-6.9c2.4-3.7,6.1-6,9.1-7.4
				c-1.8-0.8-5.3-1.9-9.5-1.9c-2.4,0-4.6,0.4-6.8,1.1c-8.9,2.9-15.2,13.2-15.9,14.4l-0.3,0.4l-6.6-3.1l0.3-0.5
				c0.1-0.1,8.4-12.8,20-16.5c3.1-1,6.2-1.5,9.3-1.5c11.2,0,17.8,6.7,17.9,6.8l3.1,3.7l-4.7,0.9c-0.1,0-8,1.7-11.2,6.8
				c-0.5,0.9-0.7,2.6-0.8,4.3c-0.1,1.1,0.1,2.1,0.4,3.1c0.5,2.2,1,4.4-1.8,6.7l-0.2,0.2L146.1,39z"/>
		</g>
	</g>
	<g>
		<g>
			<path class="st6" d="M138.5,34.8c0,0,1.5-6.6,5.7-9.9c5.9-4.7,13.1-2.2,13.1-2.2l1-3.2c-0.3-0.1-8.5-2.7-16.1,2.6
				c-7.6,5.3-8.5,10.2-8.6,10.7L138.5,34.8z"/>
		</g>
		<g>
			<path class="st6" d="M133,33.3l0.1-0.4c0.1-0.6,1-5.6,8.8-11.1c3.2-2.3,7-3.4,11.1-3.4c3.1,0,5.3,0.7,5.5,0.8l0.5,0.2l-1.4,4.3
				l-0.5-0.2c-0.2-0.1-2-0.7-4.5-0.7c-3.1,0-5.9,0.9-8.1,2.7c-4,3.2-5.5,9.5-5.5,9.6l-0.1,0.6L133,33.3z M156.9,22.1l0.7-2.1
				c-0.8-0.2-2.5-0.5-4.6-0.5c-3.9,0-7.4,1.1-10.5,3.2c-6.4,4.5-7.9,8.6-8.3,9.9l3.8,1.5c0.5-1.8,2.2-6.8,5.7-9.6
				c2.4-1.9,5.5-3,8.8-3C154.6,21.5,156.1,21.9,156.9,22.1z"/>
		</g>
	</g>
	<path class="st6" d="M113.7,173.9c-2.9-3.1-4.6-6.4-5-7.5c-0.2-0.6-0.5-1.7,0.3-2.6c0.7-0.7,1.8-1,3.4-1h2.5c2.6,0,5.6,0,7.4,0
		l1.5,0c2.1,0,3.2,0.6,3.7,1.1c0.7,0.7,0.8,1.8,0.3,3c-1.3,3.4-4.4,6.2-5.3,7c-1.2,1-2.9,1.6-4.5,1.6l0,0
		C116.2,175.6,114.7,175,113.7,173.9z"/>
	<path class="st6" d="M116.2,88.2l6-0.4c0,0-1.5,2.7-2.5,6.2c-1.1,4,1,9.8,1,9.8S112.7,94.7,116.2,88.2z"/>
	<path class="st1" d="M100,66.8c-3.8,0-8.8-0.1-12.6-2.8c0,0,4.9,8.6,12.6,8.6l0-1.1l0,1.1c7.7,0,12.6-8.6,12.6-8.6
		C108.8,66.6,103.8,66.8,100,66.8z"/>
	<path class="st6" d="M110.6,66.7c-3.8,2.3-7.3,3.1-10.6,3.2c-3.3-0.1-6.7-0.9-10.6-3.2c0,0,5.6,6.8,10.5,6.9v0c0,0,0,0,0,0
		c0,0,0,0,0,0v0C105,73.5,110.6,66.7,110.6,66.7z"/>
	<g>
		<path class="st6" d="M123.7,191.5l-0.4-5.6c18.1-1.4,23.7-18.7,23.8-20.5h5.6C152.6,169.6,145.1,189.8,123.7,191.5z"/>
	</g>
	<path class="st4" d="M129.7,155.2c0.3-1.9,0.4-3.8,0-5.6c1.6-1.2,4.5-1.7,6.7-2.4c1.8-1.1,11,1.2,17.6-6.9
		c8.3-10.1,6.6-16.1,6.6-16.1c2.1,2.4,4.2,1.5,7.5,12.5c3.3,11.1-1.5,18.8-10.5,26.5c-4.2,3.7-10.2,5.2-15.3,5.7
		c1.7-1.7-2.9-1.9-6.1-3.1c0.3-2.6-0.2-5.1-2.1-7.1c-1.2-1.2-2.7-1.9-4.2-2.5c-0.1-0.2-0.2-0.4-0.2-0.6
		C129.6,155.6,129.7,155.4,129.7,155.2z"/>
	<path class="st5" d="M136.2,166c0.2-0.5,0.3-1.1,0.5-1.7c0.2-0.6,0.9-2.3,0-0.4c0.2-0.5,0.4-1,0.5-1.5c14.5,0,27-9.9,24.6-30.8
		c1.9-2.5,4.5,5.1,4.5,5.1s7.2,21-11.5,29.2c-6.2,2.7-11.7,4.7-13,3.9c-2.7,0.5-5.2-1.3-6.1-2.6C135.9,166.7,136.1,166.3,136.2,166z
		"/>
	<path class="st6" d="M130,152.2c0-1.8-0.4-3.5-1.2-5.2c-0.1-0.1-0.1-0.2-0.2-0.3c5.6,0,12-0.6,17.4-2.8c6-2.4,13.5-10.6,14.8-20.3
		c0,0,11.3,8.7,8,27.4c-3.1,17.5-17.8,23.2-34.5,24.2c0-0.1,1.9-4,1.3-6.4c9.5,0.7,20.1-3,25.2-11.4c4.7-7.7,3.4-20.9,1.4-22.8
		C157.5,149.5,140.6,152.5,130,152.2z"/>
	<g>
		<path class="st6" d="M99.9,175.2"/>
		<path class="st6" d="M136.7,156.6c-2-2.2-5.7-4.7-14.1-4.7c0,0-16.1,0-22.6,0l0,0c0,0,0,0,0,0c0,0,0,0,0,0l0,0
			c-6.5,0-22.6,0-22.6,0c-8.5,0-12.1,2.6-14.1,4.7c-2.9,3.1-3.4,7.5-1.4,13c5.4,14.5,12.9,29.3,38.1,29.3v0c0,0,0,0,0,0c0,0,0,0,0,0
			v0c25.2,0,32.7-14.8,38.1-29.3C140.1,164.1,139.6,159.8,136.7,156.6z M132.8,168.6c-2.6,7.3-9.4,25-32.8,25
			c-23.4,0-30.3-17.7-32.8-25c-1.4-4.1-1.3-7.1,0.3-8.9c1.1-1.3,3.7-2.8,9.5-2.8l6.1,0c4.5,0,10.2,0,16.9,0c6.7,0,12.3,0,16.9,0
			l6.1,0c5.8,0,8.4,1.5,9.5,2.8C134.1,161.5,134.2,164.5,132.8,168.6z"/>
	</g>
	<path class="st6" d="M128.2,141.6c3,8.8,9.2,16,9.2,16s-8.5-0.4-8.9-1.9c-0.3-1.1-7.6-18.2-10.4-38.2
		C120.7,121.9,128,140.8,128.2,141.6z"/>
</g>
</svg>
